<mxfile host="Electron" agent="Mozilla/5.0 (X11; Linux x86_64) AppleWebKit/537.36 (KHTML, like Gecko) draw.io/26.1.1 Chrome/132.0.6834.210 Electron/34.5.0 Safari/537.36" version="26.1.1">
  <diagram name="第 1 页" id="a5q8XUGEMKnk3yH_GGJR">
    <mxGraphModel dx="907" dy="820" grid="1" gridSize="10" guides="0" tooltips="1" connect="1" arrows="1" fold="1" page="1" pageScale="1" pageWidth="1169" pageHeight="827" math="0" shadow="0">
      <root>
        <mxCell id="0" />
        <mxCell id="1" parent="0" />
        <mxCell id="zYSpTqBBPXwJxmNQrv_W-16" value="" style="edgeStyle=orthogonalEdgeStyle;rounded=0;orthogonalLoop=1;jettySize=auto;html=1;exitX=0.5;exitY=1;exitDx=0;exitDy=0;exitPerimeter=0;entryX=0;entryY=0.5;entryDx=0;entryDy=0;" edge="1" parent="1" source="zYSpTqBBPXwJxmNQrv_W-1" target="zYSpTqBBPXwJxmNQrv_W-15">
          <mxGeometry relative="1" as="geometry">
            <Array as="points">
              <mxPoint x="140" y="220" />
            </Array>
          </mxGeometry>
        </mxCell>
        <mxCell id="zYSpTqBBPXwJxmNQrv_W-30" value="否" style="edgeLabel;html=1;align=center;verticalAlign=middle;resizable=0;points=[];" vertex="1" connectable="0" parent="zYSpTqBBPXwJxmNQrv_W-16">
          <mxGeometry x="0.1389" y="2" relative="1" as="geometry">
            <mxPoint x="3" y="-8" as="offset" />
          </mxGeometry>
        </mxCell>
        <mxCell id="zYSpTqBBPXwJxmNQrv_W-1" value="有明确&lt;div&gt;目标&lt;/div&gt;" style="strokeWidth=2;html=1;shape=mxgraph.flowchart.decision;whiteSpace=wrap;" vertex="1" parent="1">
          <mxGeometry x="110" y="140" width="60" height="60" as="geometry" />
        </mxCell>
        <mxCell id="zYSpTqBBPXwJxmNQrv_W-4" value="" style="edgeStyle=orthogonalEdgeStyle;rounded=0;orthogonalLoop=1;jettySize=auto;html=1;" edge="1" parent="1" source="zYSpTqBBPXwJxmNQrv_W-3" target="zYSpTqBBPXwJxmNQrv_W-1">
          <mxGeometry relative="1" as="geometry" />
        </mxCell>
        <mxCell id="zYSpTqBBPXwJxmNQrv_W-3" value="顾客" style="strokeWidth=2;html=1;shape=mxgraph.flowchart.start_2;whiteSpace=wrap;" vertex="1" parent="1">
          <mxGeometry x="40" y="150" width="40" height="40" as="geometry" />
        </mxCell>
        <mxCell id="zYSpTqBBPXwJxmNQrv_W-19" style="edgeStyle=orthogonalEdgeStyle;rounded=0;orthogonalLoop=1;jettySize=auto;html=1;entryX=0;entryY=0.5;entryDx=0;entryDy=0;exitX=1;exitY=0.5;exitDx=0;exitDy=0;exitPerimeter=0;" edge="1" parent="1" source="zYSpTqBBPXwJxmNQrv_W-5" target="zYSpTqBBPXwJxmNQrv_W-18">
          <mxGeometry relative="1" as="geometry">
            <Array as="points" />
          </mxGeometry>
        </mxCell>
        <mxCell id="zYSpTqBBPXwJxmNQrv_W-21" value="是" style="edgeLabel;html=1;align=center;verticalAlign=middle;resizable=0;points=[];" vertex="1" connectable="0" parent="zYSpTqBBPXwJxmNQrv_W-19">
          <mxGeometry x="-0.3143" y="1" relative="1" as="geometry">
            <mxPoint y="-9" as="offset" />
          </mxGeometry>
        </mxCell>
        <mxCell id="zYSpTqBBPXwJxmNQrv_W-20" style="edgeStyle=orthogonalEdgeStyle;rounded=0;orthogonalLoop=1;jettySize=auto;html=1;entryX=0;entryY=0.5;entryDx=0;entryDy=0;exitX=0.5;exitY=1;exitDx=0;exitDy=0;exitPerimeter=0;" edge="1" parent="1" source="zYSpTqBBPXwJxmNQrv_W-5" target="zYSpTqBBPXwJxmNQrv_W-17">
          <mxGeometry relative="1" as="geometry">
            <Array as="points">
              <mxPoint x="280" y="120" />
            </Array>
          </mxGeometry>
        </mxCell>
        <mxCell id="zYSpTqBBPXwJxmNQrv_W-22" value="否" style="edgeLabel;html=1;align=center;verticalAlign=middle;resizable=0;points=[];" vertex="1" connectable="0" parent="zYSpTqBBPXwJxmNQrv_W-20">
          <mxGeometry x="0.029" relative="1" as="geometry">
            <mxPoint x="7" y="-10" as="offset" />
          </mxGeometry>
        </mxCell>
        <mxCell id="zYSpTqBBPXwJxmNQrv_W-5" value="知道&lt;div&gt;关键词&lt;/div&gt;" style="strokeWidth=2;html=1;shape=mxgraph.flowchart.decision;whiteSpace=wrap;" vertex="1" parent="1">
          <mxGeometry x="250" y="40" width="60" height="60" as="geometry" />
        </mxCell>
        <mxCell id="zYSpTqBBPXwJxmNQrv_W-40" style="edgeStyle=orthogonalEdgeStyle;rounded=0;orthogonalLoop=1;jettySize=auto;html=1;entryX=0;entryY=0.5;entryDx=0;entryDy=0;" edge="1" parent="1" source="zYSpTqBBPXwJxmNQrv_W-15" target="zYSpTqBBPXwJxmNQrv_W-31">
          <mxGeometry relative="1" as="geometry" />
        </mxCell>
        <mxCell id="zYSpTqBBPXwJxmNQrv_W-15" value="浏览&lt;span style=&quot;background-color: transparent; color: light-dark(rgb(0, 0, 0), rgb(255, 255, 255));&quot;&gt;推荐商品&lt;/span&gt;" style="rounded=1;whiteSpace=wrap;html=1;absoluteArcSize=1;arcSize=14;strokeWidth=2;" vertex="1" parent="1">
          <mxGeometry x="180" y="210" width="100" height="20" as="geometry" />
        </mxCell>
        <mxCell id="zYSpTqBBPXwJxmNQrv_W-25" value="" style="edgeStyle=orthogonalEdgeStyle;rounded=0;orthogonalLoop=1;jettySize=auto;html=1;" edge="1" parent="1" source="zYSpTqBBPXwJxmNQrv_W-17" target="zYSpTqBBPXwJxmNQrv_W-24">
          <mxGeometry relative="1" as="geometry" />
        </mxCell>
        <mxCell id="zYSpTqBBPXwJxmNQrv_W-17" value="询问AI导购" style="rounded=1;whiteSpace=wrap;html=1;absoluteArcSize=1;arcSize=14;strokeWidth=2;" vertex="1" parent="1">
          <mxGeometry x="320" y="110" width="100" height="20" as="geometry" />
        </mxCell>
        <mxCell id="zYSpTqBBPXwJxmNQrv_W-39" style="edgeStyle=orthogonalEdgeStyle;rounded=0;orthogonalLoop=1;jettySize=auto;html=1;" edge="1" parent="1" source="zYSpTqBBPXwJxmNQrv_W-18" target="zYSpTqBBPXwJxmNQrv_W-31">
          <mxGeometry relative="1" as="geometry" />
        </mxCell>
        <mxCell id="zYSpTqBBPXwJxmNQrv_W-18" value="进行模糊检索" style="rounded=1;whiteSpace=wrap;html=1;absoluteArcSize=1;arcSize=14;strokeWidth=2;" vertex="1" parent="1">
          <mxGeometry x="540" y="60" width="100" height="20" as="geometry" />
        </mxCell>
        <mxCell id="zYSpTqBBPXwJxmNQrv_W-27" style="edgeStyle=orthogonalEdgeStyle;rounded=0;orthogonalLoop=1;jettySize=auto;html=1;entryX=0.5;entryY=1;entryDx=0;entryDy=0;exitX=0.5;exitY=1;exitDx=0;exitDy=0;exitPerimeter=0;" edge="1" parent="1" source="zYSpTqBBPXwJxmNQrv_W-24" target="zYSpTqBBPXwJxmNQrv_W-17">
          <mxGeometry relative="1" as="geometry">
            <Array as="points">
              <mxPoint x="500" y="170" />
              <mxPoint x="370" y="170" />
            </Array>
          </mxGeometry>
        </mxCell>
        <mxCell id="zYSpTqBBPXwJxmNQrv_W-28" value="否" style="edgeLabel;html=1;align=center;verticalAlign=middle;resizable=0;points=[];" vertex="1" connectable="0" parent="zYSpTqBBPXwJxmNQrv_W-27">
          <mxGeometry x="-0.1025" y="-3" relative="1" as="geometry">
            <mxPoint y="-7" as="offset" />
          </mxGeometry>
        </mxCell>
        <mxCell id="zYSpTqBBPXwJxmNQrv_W-29" style="edgeStyle=orthogonalEdgeStyle;rounded=0;orthogonalLoop=1;jettySize=auto;html=1;entryX=0;entryY=0.5;entryDx=0;entryDy=0;" edge="1" parent="1" source="zYSpTqBBPXwJxmNQrv_W-24" target="zYSpTqBBPXwJxmNQrv_W-18">
          <mxGeometry relative="1" as="geometry">
            <Array as="points">
              <mxPoint x="500" y="70" />
            </Array>
          </mxGeometry>
        </mxCell>
        <mxCell id="zYSpTqBBPXwJxmNQrv_W-24" value="符合&lt;div&gt;期望&lt;/div&gt;" style="strokeWidth=2;html=1;shape=mxgraph.flowchart.decision;whiteSpace=wrap;" vertex="1" parent="1">
          <mxGeometry x="470" y="90" width="60" height="60" as="geometry" />
        </mxCell>
        <mxCell id="zYSpTqBBPXwJxmNQrv_W-44" value="" style="edgeStyle=orthogonalEdgeStyle;rounded=0;orthogonalLoop=1;jettySize=auto;html=1;entryX=0.5;entryY=0;entryDx=0;entryDy=0;entryPerimeter=0;" edge="1" parent="1" source="zYSpTqBBPXwJxmNQrv_W-31" target="zYSpTqBBPXwJxmNQrv_W-43">
          <mxGeometry relative="1" as="geometry" />
        </mxCell>
        <mxCell id="zYSpTqBBPXwJxmNQrv_W-31" value="到店选购" style="rounded=1;whiteSpace=wrap;html=1;absoluteArcSize=1;arcSize=14;strokeWidth=2;" vertex="1" parent="1">
          <mxGeometry x="540" y="210" width="100" height="20" as="geometry" />
        </mxCell>
        <mxCell id="zYSpTqBBPXwJxmNQrv_W-34" style="edgeStyle=orthogonalEdgeStyle;rounded=0;orthogonalLoop=1;jettySize=auto;html=1;exitX=0.5;exitY=0;exitDx=0;exitDy=0;exitPerimeter=0;" edge="1" parent="1" source="zYSpTqBBPXwJxmNQrv_W-32" target="zYSpTqBBPXwJxmNQrv_W-5">
          <mxGeometry relative="1" as="geometry" />
        </mxCell>
        <mxCell id="zYSpTqBBPXwJxmNQrv_W-37" value="否" style="edgeLabel;html=1;align=center;verticalAlign=middle;resizable=0;points=[];" vertex="1" connectable="0" parent="zYSpTqBBPXwJxmNQrv_W-34">
          <mxGeometry x="0.2815" y="-3" relative="1" as="geometry">
            <mxPoint y="-13" as="offset" />
          </mxGeometry>
        </mxCell>
        <mxCell id="zYSpTqBBPXwJxmNQrv_W-41" style="edgeStyle=orthogonalEdgeStyle;rounded=0;orthogonalLoop=1;jettySize=auto;html=1;entryX=0;entryY=0.5;entryDx=0;entryDy=0;" edge="1" parent="1" source="zYSpTqBBPXwJxmNQrv_W-32" target="zYSpTqBBPXwJxmNQrv_W-31">
          <mxGeometry relative="1" as="geometry">
            <Array as="points">
              <mxPoint x="210" y="170" />
              <mxPoint x="320" y="170" />
              <mxPoint x="320" y="220" />
            </Array>
          </mxGeometry>
        </mxCell>
        <mxCell id="zYSpTqBBPXwJxmNQrv_W-42" value="是" style="edgeLabel;html=1;align=center;verticalAlign=middle;resizable=0;points=[];" vertex="1" connectable="0" parent="zYSpTqBBPXwJxmNQrv_W-41">
          <mxGeometry x="-0.6231" y="1" relative="1" as="geometry">
            <mxPoint x="-1" y="-9" as="offset" />
          </mxGeometry>
        </mxCell>
        <mxCell id="zYSpTqBBPXwJxmNQrv_W-32" value="了解&lt;div&gt;商品&lt;/div&gt;" style="strokeWidth=2;html=1;shape=mxgraph.flowchart.decision;whiteSpace=wrap;" vertex="1" parent="1">
          <mxGeometry x="180" y="90" width="60" height="60" as="geometry" />
        </mxCell>
        <mxCell id="zYSpTqBBPXwJxmNQrv_W-33" style="edgeStyle=orthogonalEdgeStyle;rounded=0;orthogonalLoop=1;jettySize=auto;html=1;entryX=0;entryY=0.5;entryDx=0;entryDy=0;entryPerimeter=0;exitX=0.5;exitY=0;exitDx=0;exitDy=0;exitPerimeter=0;" edge="1" parent="1" source="zYSpTqBBPXwJxmNQrv_W-1" target="zYSpTqBBPXwJxmNQrv_W-32">
          <mxGeometry relative="1" as="geometry" />
        </mxCell>
        <mxCell id="zYSpTqBBPXwJxmNQrv_W-38" value="是" style="edgeLabel;html=1;align=center;verticalAlign=middle;resizable=0;points=[];" vertex="1" connectable="0" parent="zYSpTqBBPXwJxmNQrv_W-33">
          <mxGeometry x="0.2259" y="1" relative="1" as="geometry">
            <mxPoint y="-9" as="offset" />
          </mxGeometry>
        </mxCell>
        <mxCell id="zYSpTqBBPXwJxmNQrv_W-47" style="edgeStyle=orthogonalEdgeStyle;rounded=0;orthogonalLoop=1;jettySize=auto;html=1;entryX=1;entryY=0.5;entryDx=0;entryDy=0;" edge="1" parent="1" source="zYSpTqBBPXwJxmNQrv_W-43" target="zYSpTqBBPXwJxmNQrv_W-45">
          <mxGeometry relative="1" as="geometry">
            <Array as="points">
              <mxPoint x="520" y="250" />
            </Array>
          </mxGeometry>
        </mxCell>
        <mxCell id="zYSpTqBBPXwJxmNQrv_W-52" style="edgeStyle=orthogonalEdgeStyle;rounded=0;orthogonalLoop=1;jettySize=auto;html=1;entryX=1;entryY=0.5;entryDx=0;entryDy=0;" edge="1" parent="1" source="zYSpTqBBPXwJxmNQrv_W-43" target="zYSpTqBBPXwJxmNQrv_W-46">
          <mxGeometry relative="1" as="geometry">
            <Array as="points">
              <mxPoint x="520" y="350" />
            </Array>
          </mxGeometry>
        </mxCell>
        <mxCell id="zYSpTqBBPXwJxmNQrv_W-43" value="是计重&lt;div&gt;商品&lt;/div&gt;" style="strokeWidth=2;html=1;shape=mxgraph.flowchart.decision;whiteSpace=wrap;direction=south;" vertex="1" parent="1">
          <mxGeometry x="490" y="270" width="60" height="60" as="geometry" />
        </mxCell>
        <mxCell id="zYSpTqBBPXwJxmNQrv_W-49" value="" style="edgeStyle=orthogonalEdgeStyle;rounded=0;orthogonalLoop=1;jettySize=auto;html=1;entryX=0;entryY=0.5;entryDx=0;entryDy=0;entryPerimeter=0;" edge="1" parent="1" source="zYSpTqBBPXwJxmNQrv_W-45" target="zYSpTqBBPXwJxmNQrv_W-48">
          <mxGeometry relative="1" as="geometry">
            <Array as="points">
              <mxPoint x="300" y="250" />
            </Array>
          </mxGeometry>
        </mxCell>
        <mxCell id="zYSpTqBBPXwJxmNQrv_W-45" value="进行AI商品识别+称重" style="rounded=1;whiteSpace=wrap;html=1;absoluteArcSize=1;arcSize=14;strokeWidth=2;" vertex="1" parent="1">
          <mxGeometry x="340" y="240" width="140" height="20" as="geometry" />
        </mxCell>
        <mxCell id="zYSpTqBBPXwJxmNQrv_W-46" value="扫描条码" style="rounded=1;whiteSpace=wrap;html=1;absoluteArcSize=1;arcSize=14;strokeWidth=2;" vertex="1" parent="1">
          <mxGeometry x="340" y="340" width="140" height="20" as="geometry" />
        </mxCell>
        <mxCell id="zYSpTqBBPXwJxmNQrv_W-56" value="" style="edgeStyle=orthogonalEdgeStyle;rounded=0;orthogonalLoop=1;jettySize=auto;html=1;" edge="1" parent="1" source="zYSpTqBBPXwJxmNQrv_W-48" target="zYSpTqBBPXwJxmNQrv_W-55">
          <mxGeometry relative="1" as="geometry" />
        </mxCell>
        <mxCell id="zYSpTqBBPXwJxmNQrv_W-48" value="结算&lt;div&gt;完成&lt;/div&gt;" style="strokeWidth=2;html=1;shape=mxgraph.flowchart.decision;whiteSpace=wrap;direction=south;" vertex="1" parent="1">
          <mxGeometry x="270" y="270" width="60" height="60" as="geometry" />
        </mxCell>
        <mxCell id="zYSpTqBBPXwJxmNQrv_W-50" style="edgeStyle=orthogonalEdgeStyle;rounded=0;orthogonalLoop=1;jettySize=auto;html=1;entryX=0.5;entryY=1;entryDx=0;entryDy=0;entryPerimeter=0;" edge="1" parent="1" source="zYSpTqBBPXwJxmNQrv_W-48" target="zYSpTqBBPXwJxmNQrv_W-43">
          <mxGeometry relative="1" as="geometry" />
        </mxCell>
        <mxCell id="zYSpTqBBPXwJxmNQrv_W-51" value="否" style="edgeLabel;html=1;align=center;verticalAlign=middle;resizable=0;points=[];" vertex="1" connectable="0" parent="zYSpTqBBPXwJxmNQrv_W-50">
          <mxGeometry x="-0.1071" y="2" relative="1" as="geometry">
            <mxPoint y="-8" as="offset" />
          </mxGeometry>
        </mxCell>
        <mxCell id="zYSpTqBBPXwJxmNQrv_W-53" style="edgeStyle=orthogonalEdgeStyle;rounded=0;orthogonalLoop=1;jettySize=auto;html=1;entryX=1;entryY=0.5;entryDx=0;entryDy=0;entryPerimeter=0;" edge="1" parent="1" source="zYSpTqBBPXwJxmNQrv_W-46" target="zYSpTqBBPXwJxmNQrv_W-48">
          <mxGeometry relative="1" as="geometry" />
        </mxCell>
        <mxCell id="zYSpTqBBPXwJxmNQrv_W-55" value="购物结束" style="strokeWidth=2;html=1;shape=mxgraph.flowchart.terminator;whiteSpace=wrap;" vertex="1" parent="1">
          <mxGeometry x="40" y="280" width="70" height="40" as="geometry" />
        </mxCell>
      </root>
    </mxGraphModel>
  </diagram>
</mxfile>
